<?xml version="1.0" encoding="UTF-8"?>
<svg id="Layer_2" data-name="Layer 2" xmlns="http://www.w3.org/2000/svg" viewBox="0 0 132.49 46.38">
  <defs>
    <style>
      .cls-1 {
        fill: #fe5000;
      }
    </style>
  </defs>
  <g id="Layer_1-2" data-name="Layer 1">
    <g>
      <path d="M23.06,17.82c-1.03-1.9-2.42-3.41-4.18-4.54-1.76-1.13-3.74-1.69-5.92-1.69-1.81,0-3.45.4-4.89,1.18-.98.54-1.82,1.22-2.52,2.03v-2.71H0v34.28h5.55v-12.75c.69.79,1.5,1.46,2.47,1.99,1.44.79,3.09,1.18,4.94,1.18,2.18,0,4.16-.55,5.92-1.66,1.76-1.11,3.16-2.61,4.18-4.51,1.02-1.9,1.54-4.02,1.54-6.38s-.51-4.53-1.54-6.43ZM18.02,28.03c-.59,1.11-1.4,1.97-2.42,2.6-1.03.62-2.21.93-3.55.93s-2.54-.31-3.58-.93c-1.04-.62-1.85-1.49-2.42-2.6-.57-1.11-.86-2.39-.86-3.83s.29-2.72.86-3.83c.57-1.11,1.38-1.97,2.42-2.6,1.04-.62,2.23-.93,3.58-.93s2.53.31,3.55.93c1.02.62,1.83,1.49,2.42,2.6.59,1.11.88,2.39.88,3.83s-.29,2.72-.88,3.83Z"/>
      <path d="M46.78,12.1v2.71c-.7-.81-1.52-1.49-2.5-2.03-1.43-.79-3.07-1.18-4.92-1.18-2.19,0-4.16.56-5.92,1.69-1.76,1.13-3.16,2.64-4.18,4.54-1.03,1.9-1.54,4.04-1.54,6.43s.51,4.48,1.54,6.38c1.02,1.9,2.42,3.4,4.18,4.51,1.76,1.11,3.74,1.66,5.92,1.66,1.85,0,3.5-.4,4.94-1.18.97-.53,1.78-1.2,2.47-1.99v2.67h5.55V12.1h-5.55ZM45.25,29.49c-1.26,1.38-2.92,2.07-4.97,2.07-1.34,0-2.53-.31-3.55-.93-1.03-.62-1.83-1.49-2.42-2.6-.59-1.11-.88-2.39-.88-3.83s.29-2.72.88-3.83c.59-1.11,1.39-1.97,2.42-2.6,1.02-.62,2.21-.93,3.55-.93s2.58.31,3.6.93c1.02.62,1.82,1.49,2.39,2.6.57,1.11.86,2.39.86,3.83,0,2.15-.63,3.92-1.89,5.29Z"/>
      <path d="M126.94,12.1v2.71c-.7-.81-1.52-1.49-2.5-2.03-1.43-.79-3.07-1.18-4.92-1.18-2.19,0-4.16.56-5.92,1.69-1.76,1.13-3.16,2.64-4.18,4.54-1.03,1.9-1.54,4.04-1.54,6.43s.51,4.48,1.54,6.38c1.02,1.9,2.42,3.4,4.18,4.51,1.76,1.11,3.74,1.66,5.92,1.66,1.85,0,3.5-.4,4.94-1.18.97-.53,1.78-1.2,2.47-1.99v2.67h5.55V12.1h-5.55ZM125.4,29.49c-1.26,1.38-2.92,2.07-4.97,2.07-1.34,0-2.53-.31-3.55-.93-1.03-.62-1.83-1.49-2.42-2.6-.59-1.11-.88-2.39-.88-3.83s.29-2.72.88-3.83c.59-1.11,1.39-1.97,2.42-2.6,1.02-.62,2.21-.93,3.55-.93s2.58.31,3.6.93c1.02.62,1.82,1.49,2.39,2.6.57,1.11.86,2.39.86,3.83,0,2.15-.63,3.92-1.89,5.29Z"/>
      <path d="M98.26,18.44v7.48c0,1.78-.43,3.15-1.29,4.11-.86.96-2.09,1.44-3.71,1.44-1.04,0-1.94-.22-2.7-.66-.76-.44-1.33-1.07-1.71-1.89-.21-.45-.36-.96-.46-1.51l-5.61-.03c.14,1.59.56,3.03,1.28,4.31.89,1.6,2.13,2.85,3.73,3.76,1.6.91,3.42,1.36,5.47,1.36s3.91-.45,5.5-1.34c1.58-.89,2.81-2.13,3.71-3.73.89-1.6,1.34-3.45,1.34-5.57v-10.19l-5.55,2.46Z"/>
      <g>
        <path class="cls-1" d="M74.95,24.36s-.07-.02-.11-.04c.03.01.07.03.1.04,0,0,0,0,0,0ZM84.54,12.98s-.02,0-.04-.01c-.01,0-.02,0-.03,0,.02,0,.05,0,.07.02ZM102.57,10.38s-.02,0-.03,0c0,0-.01,0-.02,0,.01,0,.03,0,.04.01Z"/>
        <g>
          <path class="cls-1" d="M83.82,13.18l-9.16,10.17c-.35.39-.08,1.01.45,1.01l13.73.06c.32,0,.62-.22.68-.52l1.38-6.14s-.02-.05-.04-.04l-1.82.81c-.39.17-.87.07-1.1-.28-.31-.46-.12-1.06.36-1.27l1.85-.82s.03-.04,0-.06l-5.48-3.09c-.27-.15-.63-.08-.85.16Z"/>
          <path class="cls-1" d="M92.83,16.26l-.25-.57s-.03-.09-.04-.14l-3.66,1.62c-.23.1-.33.37-.23.6.1.23.37.33.6.23l3.66-1.62s-.05-.08-.07-.12Z"/>
          <g>
            <rect class="cls-1" x="92.6" y="12.32" width="11.08" height="2.49" rx=".49" ry=".49" transform="translate(2.94 40.98) rotate(-23.94)"/>
            <path class="cls-1" d="M103.36,12.88l-9.23,4.1c-.18.08-.38.08-.56.01-.18-.07-.33-.21-.41-.39l-.61-1.38c-.05-.1-.07-.21-.06-.32,0-.28.18-.53.44-.65l9.23-4.1c.18-.08.38-.08.56-.01.18.07.33.21.41.39l.61,1.38c.05.1.07.21.06.32h0c0,.28-.18.53-.44.65ZM92.99,15.02l.61,1.38c.03.06.07.1.14.13.06.02.13.02.19,0l9.23-4.1c.12-.05.18-.2.12-.32l-.61-1.38c-.03-.06-.07-.1-.14-.13-.06-.02-.13-.02-.19,0l-9.23,4.1c-.08.04-.14.12-.14.22,0,.04,0,.07.02.11Z"/>
          </g>
        </g>
      </g>
      <polygon points="80.91 36.3 70.21 23.7 80.41 12.1 73.81 12.1 64.02 23.48 64.02 0 58.48 0 58.48 36.3 64.02 36.3 64.02 24.43 73.86 36.3 80.91 36.3"/>
    </g>
  </g>
</svg>